<svg t="1688711508366" class="icon" viewBox="0 0 1024 1024" version="1.1" xmlns="http://www.w3.org/2000/svg" p-id="1699" width="48" height="48"><path d="M527.104 167.722667a42.666667 42.666667 0 0 0-34.133333-25.6 444.629333 444.629333 0 0 0-445.013334 228.309333 42.666667 42.666667 0 0 0 16.853334 57.941333A258.858667 258.858667 0 0 1 123.733333 472.277333a258.304 258.304 0 0 1 76.202667 183.893334 258.176 258.176 0 0 1-76.202667 183.893333A42.666667 42.666667 0 0 0 183.936 900.266667a259.626667 259.626667 0 0 1 411.733333 58.794666 42.666667 42.666667 0 0 0 57.898667 16.853334 444.544 444.544 0 0 0 228.309333-445.056 42.666667 42.666667 0 0 0-67.925333-28.970667 208.426667 208.426667 0 0 1-291.968-292.010667 42.666667 42.666667 0 0 0 5.12-42.154666z m272.085333 439.765333a358.4 358.4 0 0 1-152.832 272.768 339.669333 339.669333 0 0 0-34.133333-40.192 344.32 344.32 0 0 0-244.224-100.992 348.501333 348.501333 0 0 0-96.341333 13.610667 347.008 347.008 0 0 0 13.610666-96.512 343.125333 343.125333 0 0 0-101.333333-244.224 340.266667 340.266667 0 0 0-40.192-34.133334 352.170667 352.170667 0 0 1 40.192-48.042666 357.589333 357.589333 0 0 1 232.576-104.96 293.205333 293.205333 0 0 0 382.677333 382.677333z m109.312-409.6l-41.173333 41.173333-82.261333-82.346666 41.173333-41.216a42.666667 42.666667 0 1 0-60.330667-60.330667l-71.466666 71.381333-107.050667 107.008a143.573333 143.573333 0 0 0 203.050667 203.050667l107.050666-107.008 71.338667-71.381333a42.666667 42.666667 0 1 0-60.330667-60.330667z m-178.389333 178.389333a58.368 58.368 0 0 1-82.389333 0 58.24 58.24 0 0 1 0-82.389333l76.8-76.8 82.389333 82.389333z" p-id="1700"></path></svg>